<?xml version="1.0" encoding="UTF-8" standalone="no"?>
<!-- Created with Inkscape (http://www.inkscape.org/) -->

<svg
   width="292.87799mm"
   height="38.466908mm"
   viewBox="0 0 292.87799 38.466908"
   version="1.1"
   id="svg1"
   xmlns:inkscape="http://www.inkscape.org/namespaces/inkscape"
   xmlns:sodipodi="http://sodipodi.sourceforge.net/DTD/sodipodi-0.dtd"
   xmlns="http://www.w3.org/2000/svg"
   xmlns:svg="http://www.w3.org/2000/svg">
  <sodipodi:namedview
     id="namedview1"
     pagecolor="#ffffff"
     bordercolor="#000000"
     borderopacity="0.25"
     inkscape:showpageshadow="2"
     inkscape:pageopacity="0.0"
     inkscape:pagecheckerboard="0"
     inkscape:deskcolor="#d1d1d1"
     inkscape:document-units="px"
     showborder="false" />
  <defs
     id="defs1" />
  <g
     inkscape:label="Layer 1"
     inkscape:groupmode="layer"
     id="layer1"
     transform="translate(-1.3299728,-78.968191)">
    <path
       d="m 25.627554,108.73912 2.455334,7.51946 h 7.877531 L 23.069913,78.968191 H 14.578548 L 1.3299728,116.25858 h 7.8263787 l 2.5064875,-7.51946 z m -2.097265,-6.3941 H 13.811256 L 18.670773,87.766473 Z M 40.154954,88.63607 v 27.62251 h 7.161392 V 99.685075 c 0,-3.273779 2.250723,-5.422197 5.780267,-5.422197 3.069168,0 4.603752,1.688043 4.603752,4.961822 v 17.03388 h 7.161392 V 97.741269 c 0,-6.138336 -3.324932,-9.565574 -9.258657,-9.565574 -3.734155,0 -6.240642,1.329973 -8.286754,4.450294 V 88.63607 Z m 48.748622,27.62251 h 7.161392 V 78.968191 h -7.161392 v 13.248575 c -1.790348,-2.762251 -4.143377,-4.041071 -7.621768,-4.041071 -6.598711,0 -11.611685,6.342947 -11.611685,14.680855 0,3.73415 1.125361,7.51946 2.966862,10.17941 1.892654,2.7111 5.268739,4.39914 8.644823,4.39914 3.478391,0 5.83142,-1.22767 7.621768,-3.98992 z M 82.867545,94.160573 c 3.631849,0 6.036031,3.47839 6.036031,8.798277 0,5.01298 -2.455335,8.49137 -6.036031,8.49137 -3.580696,0 -6.03603,-3.52954 -6.03603,-8.59367 0,-5.166434 2.455334,-8.695977 6.03603,-8.695977 z M 102.66368,88.63607 v 27.62251 h 7.16139 v -14.68085 c 0,-4.194531 2.09727,-6.291796 6.2918,-6.291796 0.76729,0 1.27882,0.05115 2.25072,0.204612 v -7.263698 c -0.40922,-0.05115 -0.56268,-0.05115 -0.8696,-0.05115 -3.27378,0 -6.08718,2.148418 -7.67292,5.882572 v -5.4222 z m 32.02168,-0.460375 c -8.44021,0 -13.60664,5.575655 -13.60664,14.629705 0,9.10519 5.16643,14.6297 13.65779,14.6297 8.44022,0 13.6578,-5.52451 13.6578,-14.42509 0,-9.360965 -5.06413,-14.834315 -13.70895,-14.834315 z m 0.0512,5.780267 c 3.93877,0 6.49641,3.529543 6.49641,8.951738 0,5.16643 -2.65995,8.74713 -6.49641,8.74713 -3.88761,0 -6.4964,-3.52954 -6.4964,-8.84943 0,-5.319895 2.60879,-8.849438 6.4964,-8.849438 z M 161.1314,88.63607 h -7.16139 v 27.62251 h 7.16139 z m 0,-9.667879 h -7.16139 v 6.3941 h 7.16139 z m 24.34873,37.290389 h 7.1614 V 78.968191 h -7.1614 v 13.248575 c -1.79034,-2.762251 -4.14337,-4.041071 -7.62176,-4.041071 -6.59872,0 -11.61169,6.342947 -11.61169,14.680855 0,3.73415 1.12536,7.51946 2.96686,10.17941 1.89266,2.7111 5.26874,4.39914 8.64483,4.39914 3.47839,0 5.83142,-1.22767 7.62176,-3.98992 z M 179.4441,94.160573 c 3.63185,0 6.03603,3.47839 6.03603,8.798277 0,5.01298 -2.45533,8.49137 -6.03603,8.49137 -3.58069,0 -6.03603,-3.52954 -6.03603,-8.59367 0,-5.166434 2.45534,-8.695977 6.03603,-8.695977 z"
       id="path7"
       style="font-weight:bold;font-size:51.1528px;font-family:'Nimbus Sans';-inkscape-font-specification:'Nimbus Sans, Bold';stroke-width:0.264583" />
    <path
       style="font-weight:bold;font-size:51.1528px;font-family:'Nimbus Sans';-inkscape-font-specification:'Nimbus Sans, Bold';fill:#00aa88;stroke-width:0.264583"
       d="m 199.95633,116.25858 h 14.57855 c 5.67796,0 9.25865,-1.32997 11.81629,-4.34799 2.91571,-3.47839 4.50145,-8.49136 4.50145,-14.322779 0,-5.780267 -1.58574,-10.793242 -4.50145,-14.322785 -2.55764,-3.018015 -6.08718,-4.296835 -11.81629,-4.296835 h -14.57855 z m 7.67292,-6.3941 V 85.362291 h 6.90563 c 5.78026,0 8.64482,4.041071 8.64482,12.276672 0,8.184447 -2.86456,12.225517 -8.64482,12.225517 z m 52.68738,-5.16643 c 0.0512,-0.61383 0.0512,-0.8696 0.0512,-1.22767 0,-2.76225 -0.40922,-5.319889 -1.07421,-7.263695 -1.8415,-5.012975 -6.29179,-8.03099 -11.86745,-8.03099 -7.92868,0 -12.7882,5.729114 -12.7882,14.987775 0,8.84943 4.80836,14.27163 12.63474,14.27163 6.18949,0 11.20247,-3.47839 12.7882,-8.95174 h -7.05908 c -0.8696,2.19957 -2.86456,3.47839 -5.47335,3.47839 -2.04612,0 -3.68301,-0.8696 -4.70606,-2.40418 -0.66499,-1.02306 -0.92075,-2.25073 -1.02306,-4.85952 z m -18.41501,-4.757211 c 0.46037,-4.245682 2.25072,-6.291794 5.42219,-6.291794 3.27378,0 5.21759,2.19957 5.57566,6.291794 z m 37.03464,16.317741 9.51442,-27.62251 h -7.57062 l -5.57565,20.20536 -5.98488,-20.20536 h -7.57061 l 9.66787,27.62251 z"
       id="path8" />
    <path
       style="font-weight:normal;font-size:51.1528px;font-family:'Noto Looped Lao UI';-inkscape-font-specification:'Noto Looped Lao UI';fill:#00aa88;stroke-width:0.264583"
       d="m 287.86503,113.49633 q 0,-1.89265 0.92075,-2.65994 0.92075,-0.7673 2.19957,-0.7673 1.32997,0 2.25072,0.7673 0.9719,0.76729 0.9719,2.65994 0,1.8415 -0.9719,2.65995 -0.92075,0.81844 -2.25072,0.81844 -1.27882,0 -2.19957,-0.81844 -0.92075,-0.81845 -0.92075,-2.65995 z"
       id="path9" />
  </g>
</svg>
